<svg width="369" height="112" viewBox="0 0 369 112" fill="none" xmlns="http://www.w3.org/2000/svg">
<g clip-path="url(#clip0_366_679)">
<path fill-rule="evenodd" clip-rule="evenodd" d="M195.098 55.9614C195.098 38.5557 206.473 26.3186 222.863 26.3186C239.242 26.3186 250.706 38.5557 250.706 55.9614C250.706 73.3672 239.175 85.5932 222.786 85.5932C206.396 85.5932 195.098 73.3672 195.098 55.9614ZM205.612 55.9614C205.612 68.2206 212.349 75.9516 222.863 75.9516C233.366 75.9516 240.114 68.2316 240.114 55.9614C240.114 43.6912 233.377 35.9603 222.863 35.9603C212.349 35.9603 205.612 43.7023 205.612 55.9614ZM139.191 27.3346L166.084 67.9554V27.3346H175.968V84.6544H166.084L139.114 44.0446V84.6544H129.229V27.3346H139.191ZM291.868 60.3459C290.763 63.2506 289.593 66.7847 288.179 71.7988C286.92 67.1713 285.826 63.8028 284.567 60.3459L272.021 27.3346H261.363L282.999 84.6544H293.348L314.685 27.3346H304.248L291.868 60.3459ZM337.955 27.3346H348.237L368.934 84.6544H358.342L353.715 71.4013H332.311L327.684 84.6544H317.258L337.955 27.3346ZM341.809 44.4422L335.304 62.9524H350.866L344.239 44.4422C343.742 43 343.351 41.5235 343.068 40.0245C342.737 41.5208 342.317 42.996 341.809 44.4422Z" fill="white"/>
<path fill-rule="evenodd" clip-rule="evenodd" d="M77.1001 43.1279C50.9362 47.5456 27.7543 63.0076 12.977 85.0961C7.32076 93.2795 2.94484 102.277 0 111.779C17.5714 35.9381 50.3729 0 50.3729 0C50.3729 0 63.2064 14.0594 77.1001 43.1279ZM80.8441 52.7587L81.4626 52.6814C89.6966 71.823 96.1587 91.679 100.768 112C100.768 112 79.3421 90.486 54.0065 85.262C51.6085 84.7762 49.1374 84.7762 46.7394 85.262C21.8787 90.3866 0.795188 111.172 0 111.967C8.92534 94.6077 21.9701 79.701 37.9923 68.552C45.8549 63.227 54.4688 59.1062 63.5488 56.326C68.0653 54.969 72.6708 53.9283 77.332 53.2115C77.6848 53.1649 78.0366 53.1153 78.3883 53.0658C79.2036 52.9508 80.0185 52.8359 80.8441 52.7587Z" fill="#0EB0A4"/>
</g>
<defs>
<clipPath id="clip0_366_679">
<rect width="368.945" height="112" fill="white"/>
</clipPath>
</defs>
</svg>
